<?xml version="1.0" encoding="utf-8"?>
<!-- Generator: Adobe Illustrator 13.0.1, SVG Export Plug-In . SVG Version: 6.00 Build 14948)  -->
<!DOCTYPE svg PUBLIC "-//W3C//DTD SVG 1.1//EN" "http://www.w3.org/Graphics/SVG/1.1/DTD/svg11.dtd">
<svg version="1.1" xmlns="http://www.w3.org/2000/svg" xmlns:xlink="http://www.w3.org/1999/xlink" x="0px" y="0px"
	 width="614.992px" height="123.766px" viewBox="0 0 614.992 123.766" enable-background="new 0 0 614.992 123.766"
	 xml:space="preserve">
<g id="Background">
</g>
<g id="Guides">
</g>
<g id="Foreground">
	<g>
		<path stroke="#000000" d="M27.718,37.517c-3.444-2.502-4.333-6.726-3.115-10.379c-4.407,1.536-12.501,1.588-16.984-1.668
			C3.802,22.696-6.521,11.57,8.059,6.947C37.917-2.314,55.62-0.151,84.741,4.454c13.898,2.249,37.169,7.608,42.146,11.224
			l9.303,5.043c9.041,14.021,37.736,51.158,36.14,64.418c-4.749,2.916-3.891,6.306-10.375,5.678
			c-5.889-4.278-16.885-15.854-20.749-18.661c-12.132-8.814-28.726,13.401-43.361,2.768c-3.834-2.785-8.605-8.287-5.005-13.242
			c1.292-1.779,8.806-4.631,10.12-5.92c-9.815,4.185-19.574,4.003-27.074,2.195c0,0-3.762-1.922-3.642-3.583
			c-1.024-2.917,8.02-8.729,8.02-8.729c-11.045,4.21-19.277,6.978-31.591,3.08c-1.68-2.742,1.263-6.907,3.351-9.779
			C53.063,37.516,37.396,44.549,27.718,37.517z"/>
		<path fill="#FFFFFF" stroke="#000000" d="M54.508,3.531c-11.944-1.461-30.539,2.168-44.8,6.591
			c-9.694,3.074-0.461,11.852,2.494,12.733c7.879,2.35,35.057-5.03,40.537-6.24c0,0,5.068-0.116,1.273,3.98
			c-1.651,0.702-23.492,4.732-24.595,6.251c-1.813,2.496-1.401,5.701,0.767,7.276c8.323,6.047,34.694-2.872,47.509-4.673
			l3.216,1.547c-1.554,1.76-21.369,7.013-23.262,8.367c-0.918,0.656-1.608,1.195-2.229,2.05c-0.99,1.362-1.387,2.831-1.738,4.435
			c12.171,3.038,35.055-4.99,43.614-9.57c4.56-0.354,4.169,2.984,4.169,2.984c-7.408,1.33-15.654,6.384-20.019,9.586
			c-2.364,1.734-3.852,2.891-3.417,5.334l-0.035-0.039c12.185,2.737,29.591-1.724,40.447-5.777c1.578-0.527,4.821,1.59,2.05,5.075
			c-6.247,4.181-19.685,4.416-24.256,10.707c-1.81,2.491,2.41,6.17,4.077,7.381c12.169,8.841,28.583-12.894,43.242-2.243
			c5.898,4.284,15.271,15.592,19.706,17.879c3.007,0.997,3.033-3.905,5.218-4.112c2.147-5.234-6.767-13.571-10.958-23.099
			c-2.673-7.125-22.128-35.283-25.813-37.903C126.415,18.288,97.058,9.239,83.279,7.01C68.093,4.608,66.665,5.018,54.508,3.531z"/>
		<g>
			<path fill-rule="evenodd" clip-rule="evenodd" d="M238.458,42.761c0-26.02-17.289-39.467-48.722-39.467
				c-12.922,0-24.797,0.349-35.625,0.873v117.877h32.481V85.72c2.27,0.175,4.191,0.175,4.889,0.175
				C223.09,85.895,238.458,65.637,238.458,42.761z M204.928,43.809c0,9.779-7.509,15.019-15.892,15.019
				c-0.523,0-1.222,0-2.444-0.175V29.838c1.397-0.174,2.619-0.174,3.143-0.174C200.912,29.664,204.928,36.125,204.928,43.809z"/>
			<path fill-rule="evenodd" clip-rule="evenodd" d="M349.674,60.224c0-42.61-24.099-56.755-58.501-56.755
				c-17.114,0-33.18,0.524-42.436,1.048V121.87c11.875,0.698,24.623,1.047,37.371,1.047
				C324.353,122.917,349.674,100.564,349.674,60.224z M314.573,62.844c0,22.003-11.351,31.957-25.845,31.957
				c-3.842,0-6.112-0.175-7.509-0.523V31.235c2.445-0.35,4.366-0.35,8.208-0.35C311.081,30.886,314.573,44.507,314.573,62.844z"/>
			<polygon fill-rule="evenodd" clip-rule="evenodd" points="429.632,32.108 429.632,4.167 362.399,4.167 362.399,122.044 
				394.881,122.044 394.881,77.862 427.711,77.862 427.711,51.143 394.881,51.143 394.881,32.108 			"/>
			<rect x="449.161" y="4.167" fill-rule="evenodd" clip-rule="evenodd" width="15.717" height="117.877"/>
			<path fill-rule="evenodd" clip-rule="evenodd" d="M512.867,10.628c0-5.763-4.715-10.128-10.478-10.128
				s-10.478,4.541-10.478,10.128c0,5.763,4.715,10.303,10.478,10.303S512.867,16.217,512.867,10.628z M510.247,122.044V35.251
				H494.53v86.793H510.247z"/>
			<path fill-rule="evenodd" clip-rule="evenodd" d="M614.992,74.544c0-26.544-11.526-40.864-31.958-40.864
				c-13.098,0-23.925,7.16-28.64,19.384l-0.35-0.174c1.048-4.366,1.572-11.177,1.572-16.241V4.167h-15.717v115.607
				c9.255,2.444,17.813,3.492,29.862,3.492C597.703,123.266,614.992,104.93,614.992,74.544z M598.576,75.941
				c0,24.972-11.002,34.927-27.592,34.927c-6.111,0-10.827-0.698-15.367-2.096V79.958c0-15.019,8.033-33.355,23.75-33.355
				C592.463,46.603,598.576,57.255,598.576,75.941z"/>
		</g>
		<path stroke="#000000" d="M40.089,122.024c-4.254,0.148-7.556-2.633-8.844-6.262c-2.527,3.924-5.499,7.301-11.036,7.494
			c-4.715,0.164-21.848-1.559-13.205-14.179c17.827-25.679,31.881-33.915,57.665-48.214c12.335-6.785,33.973-16.888,40.121-17.103
			l8.896-2.865c15.447,4.189,55.121,27.481,63.836,46.133c-1.947,5.222-4.898,5.695-10.394,9.192
			c-7.275,0.254-13.639-13.156-18.414-12.989c-14.986,0.522-12.255,24.464-30.334,25.096c-4.736,0.165-11.883-1.233-12.097-7.354
			c-0.077-2.197,4.088-9.069,4.329-10.895c-5.157,9.341-12.959,15.205-19.983,18.397c0,0-4.147,0.801-5.076-0.581
			c-0.939-2.229-0.344-9.847-0.344-9.847c-6.112,10.117-9.604,15.397-21.708,19.907c-3.012-1.127-3.256-6.221-3.38-9.769
			C60.06,106.419,52.044,121.606,40.089,122.024z"/>
		<path fill="#FFFFFF" stroke="#000000" d="M40.276,78.749c-10.313,6.202-19.952,18.535-28.466,30.801
			c-5.747,8.391,5.17,9.621,8.252,9.513c6.393-0.223,23.302-24.587,26.875-28.914c0,0,3.922-3.212,3.453,2.352
			c-0.869,1.57-15.598,18.192-15.533,20.069c0.108,3.082,2.406,5.354,5.084,5.261c10.282-0.358,25.572-23.622,34.561-32.932
			l3.486-0.761c-0.141,2.344-12.521,18.683-13.18,20.915c-0.319,1.083-0.531,1.933-0.495,2.987c0.059,1.684,0.649,3.085,1.361,4.564
			c11.461-5.099,23.668-24.816,30.723-34.183c3.375-3.086,5.123-0.215,5.123-0.215c-1.002,3.396-12.247,16.026-12.119,19.669
			l0.218,6.262l0.322,0.037c11.288-5.346,22.257-19.577,28.317-29.454c0.919-1.388,4.778-1.716,4.74,2.736
			c-2.35,7.142-12.794,15.6-12.522,23.371c0.107,3.077,5.698,3.378,7.757,3.306c15.032-0.524,12.226-24.463,30.334-25.096
			c7.285-0.255,13.808,14.837,18.314,13.229c2.984-1.066,4.754-3.361,6.349-4.869c-1.53-5.447-14.639-14.455-21.818-22.483
			c-4.711-5.331-37.297-20.839-37.297-20.839c-4.017,0.14-36.795,12.976-49.026,19.704C51.644,71.234,50.772,72.436,40.276,78.749z"
			/>
		<path fill-rule="evenodd" clip-rule="evenodd" d="M604.881,16.151l-2.202-3.494c-0.383-0.622-0.766-1.196-1.005-1.483
			c1.675-0.24,2.728-1.34,2.728-3.207c0-1.675-1.053-2.824-3.686-2.824h-3.541v11.009h2.105v-4.739h0.145l2.822,4.739H604.881z
			 M602.201,8.254c0,0.862-0.575,1.771-2.201,1.771h-0.719V6.818h1.101C601.721,6.818,602.201,7.249,602.201,8.254z M600.574,2.845
			c4.26,0,7.705,3.686,7.705,7.945c0,4.308-3.445,7.802-7.705,7.802c-4.309,0-7.754-3.686-7.754-7.945
			C592.82,6.34,596.265,2.845,600.574,2.845z M600.574,0.5c-5.695,0-10.291,4.547-10.291,10.195c0,5.792,4.451,10.243,10.291,10.243
			c5.552,0,10.242-4.643,10.242-10.243C610.816,4.951,606.317,0.5,600.574,0.5z"/>
	</g>
</g>
</svg>
